<svg width="30" height="30" xmlns="http://www.w3.org/2000/svg" fill="none" viewBox="0 0 30 30"><path fill="#000" d="M30 16.506c0-.235-.127-.445-.319-.525l-6.94-2.91v-9.32h-.018c.07-.28-.061-.576-.3-.674L15.165.034a.418.418 0 00-.33 0L7.577 3.077a.541.541 0 00-.306.403h-.013v9.591l-6.94 2.91a.541.541 0 00-.305.403H0v9.893h.012c-.053.273.078.55.307.646l7.258 3.043a.416.416 0 00.33 0L15 26.992l7.093 2.974a.416.416 0 00.33 0l7.258-3.043a.534.534 0 00.3-.376H30V16.505zM7.258 28.645l-6.29-2.638v-8.705l6.29 2.638v8.705zm.484-9.69L1.9 16.506l5.804-2.433 5.843 2.45-5.805 2.434zm6.774 7.052l-6.29 2.638V19.94l6.29-2.638v8.705zm0-10.298l-6.29-2.638V4.398l6.29 2.638v8.673zM9.158 3.602L15 1.152l5.842 2.45L15 6.052l-5.842-2.45zm12.616.796v8.673l-6.29 2.638V7.036l6.29-2.638zm0 24.247l-6.29-2.638v-8.705l6.29 2.638v8.705zm.484-9.69l-5.805-2.433 5.843-2.45 5.804 2.434-5.842 2.45zm6.774 7.052l-6.29 2.638V19.94l6.29-2.638v8.705z"/></svg>