<svg width="200" height="80" viewBox="0 0 200 80" fill="none" xmlns="http://www.w3.org/2000/svg">
<rect width="200" height="80" fill="#FFFF99"/>
<rect x="7.5" y="7.5" width="185" height="65" stroke="#F4AAE8" stroke-width="5"/>
<path d="M33.7451 51V29.584H38.2861V47.25H46.9727V51H33.7451ZM53.916 42.7822C53.916 44.4033 54.1797 45.6289 54.707 46.459C55.2441 47.2891 56.1133 47.7041 57.3145 47.7041C58.5059 47.7041 59.3604 47.2939 59.8779 46.4736C60.4053 45.6436 60.6689 44.4131 60.6689 42.7822C60.6689 41.1611 60.4053 39.9453 59.8779 39.1348C59.3506 38.3242 58.4863 37.9189 57.2852 37.9189C56.0938 37.9189 55.2344 38.3242 54.707 39.1348C54.1797 39.9355 53.916 41.1514 53.916 42.7822ZM65.2393 42.7822C65.2393 45.4482 64.5361 47.5332 63.1299 49.0371C61.7236 50.541 59.7656 51.293 57.2559 51.293C55.6836 51.293 54.2969 50.9512 53.0957 50.2676C51.8945 49.5742 50.9717 48.583 50.3271 47.2939C49.6826 46.0049 49.3604 44.501 49.3604 42.7822C49.3604 40.1064 50.0586 38.0264 51.4551 36.542C52.8516 35.0576 54.8145 34.3154 57.3438 34.3154C58.916 34.3154 60.3027 34.6572 61.5039 35.3408C62.7051 36.0244 63.6279 37.0059 64.2725 38.2852C64.917 39.5645 65.2393 41.0635 65.2393 42.7822ZM83.1836 34.623V36.8936L80.6201 37.5527C81.0889 38.2852 81.3232 39.1055 81.3232 40.0137C81.3232 41.7715 80.708 43.1436 79.4775 44.1299C78.2568 45.1064 76.5576 45.5947 74.3799 45.5947L73.5742 45.5508L72.915 45.4775C72.4561 45.8291 72.2266 46.2197 72.2266 46.6494C72.2266 47.2939 73.0469 47.6162 74.6875 47.6162H77.4707C79.2676 47.6162 80.6348 48.002 81.5723 48.7734C82.5195 49.5449 82.9932 50.6777 82.9932 52.1719C82.9932 54.0859 82.1924 55.5703 80.5908 56.625C78.999 57.6797 76.709 58.207 73.7207 58.207C71.4355 58.207 69.6875 57.8066 68.4766 57.0059C67.2754 56.2148 66.6748 55.1016 66.6748 53.666C66.6748 52.6797 66.9824 51.8545 67.5977 51.1904C68.2129 50.5264 69.1162 50.0527 70.3076 49.7695C69.8486 49.5742 69.4482 49.2568 69.1064 48.8174C68.7646 48.3682 68.5938 47.8945 68.5938 47.3965C68.5938 46.7715 68.7744 46.2539 69.1357 45.8438C69.4971 45.4238 70.0195 45.0137 70.7031 44.6133C69.8438 44.2422 69.1602 43.6465 68.6523 42.8262C68.1543 42.0059 67.9053 41.0391 67.9053 39.9258C67.9053 38.1387 68.4863 36.7568 69.6484 35.7803C70.8105 34.8037 72.4707 34.3154 74.6289 34.3154C75.0879 34.3154 75.6299 34.3594 76.2549 34.4473C76.8896 34.5254 77.2949 34.584 77.4707 34.623H83.1836ZM70.542 53.3145C70.542 53.9297 70.835 54.4131 71.4209 54.7646C72.0166 55.1162 72.8467 55.292 73.9111 55.292C75.5127 55.292 76.7676 55.0723 77.6758 54.6328C78.584 54.1934 79.0381 53.5928 79.0381 52.8311C79.0381 52.2158 78.7695 51.791 78.2324 51.5566C77.6953 51.3223 76.8652 51.2051 75.7422 51.2051H73.4277C72.6074 51.2051 71.9189 51.3955 71.3623 51.7764C70.8154 52.167 70.542 52.6797 70.542 53.3145ZM72.168 39.9844C72.168 40.873 72.3682 41.5762 72.7686 42.0938C73.1787 42.6113 73.7988 42.8701 74.6289 42.8701C75.4688 42.8701 76.084 42.6113 76.4746 42.0938C76.8652 41.5762 77.0605 40.873 77.0605 39.9844C77.0605 38.0117 76.25 37.0254 74.6289 37.0254C72.9883 37.0254 72.168 38.0117 72.168 39.9844ZM89.4531 42.7822C89.4531 44.4033 89.7168 45.6289 90.2441 46.459C90.7812 47.2891 91.6504 47.7041 92.8516 47.7041C94.043 47.7041 94.8975 47.2939 95.415 46.4736C95.9424 45.6436 96.2061 44.4131 96.2061 42.7822C96.2061 41.1611 95.9424 39.9453 95.415 39.1348C94.8877 38.3242 94.0234 37.9189 92.8223 37.9189C91.6309 37.9189 90.7715 38.3242 90.2441 39.1348C89.7168 39.9355 89.4531 41.1514 89.4531 42.7822ZM100.776 42.7822C100.776 45.4482 100.073 47.5332 98.667 49.0371C97.2607 50.541 95.3027 51.293 92.793 51.293C91.2207 51.293 89.834 50.9512 88.6328 50.2676C87.4316 49.5742 86.5088 48.583 85.8643 47.2939C85.2197 46.0049 84.8975 44.501 84.8975 42.7822C84.8975 40.1064 85.5957 38.0264 86.9922 36.542C88.3887 35.0576 90.3516 34.3154 92.8809 34.3154C94.4531 34.3154 95.8398 34.6572 97.041 35.3408C98.2422 36.0244 99.165 37.0059 99.8096 38.2852C100.454 39.5645 100.776 41.0635 100.776 42.7822ZM111.367 47.7334C112.148 47.7334 113.086 47.5625 114.18 47.2207V50.5459C113.066 51.0439 111.699 51.293 110.078 51.293C108.291 51.293 106.987 50.8438 106.167 49.9453C105.356 49.0371 104.951 47.6797 104.951 45.873V37.9775H102.812V36.0879L105.273 34.5938L106.562 31.1367H109.419V34.623H114.004V37.9775H109.419V45.873C109.419 46.5078 109.595 46.9766 109.946 47.2793C110.308 47.582 110.781 47.7334 111.367 47.7334ZM115.161 34.623H120.054L123.145 43.8369C123.408 44.6377 123.589 45.585 123.687 46.6787H123.774C123.882 45.6729 124.092 44.7256 124.404 43.8369L127.437 34.623H132.227L125.298 53.0947C124.663 54.8037 123.755 56.083 122.573 56.9326C121.401 57.7822 120.029 58.207 118.457 58.207C117.686 58.207 116.929 58.124 116.187 57.958V54.4131C116.724 54.54 117.31 54.6035 117.944 54.6035C118.735 54.6035 119.424 54.3594 120.01 53.8711C120.605 53.3926 121.069 52.665 121.401 51.6885L121.665 50.8828L115.161 34.623ZM143.579 51.293C141.655 51.293 140.146 50.5947 139.053 49.1982H138.818C138.975 50.5654 139.053 51.3564 139.053 51.5713V58.207H134.585V34.623H138.218L138.848 36.7471H139.053C140.098 35.126 141.646 34.3154 143.696 34.3154C145.63 34.3154 147.144 35.0625 148.237 36.5566C149.331 38.0508 149.878 40.126 149.878 42.7822C149.878 44.5303 149.619 46.0488 149.102 47.3379C148.594 48.627 147.866 49.6084 146.919 50.2822C145.972 50.9561 144.858 51.293 143.579 51.293ZM142.261 37.8896C141.157 37.8896 140.352 38.2314 139.844 38.915C139.336 39.5889 139.072 40.707 139.053 42.2695V42.7529C139.053 44.5107 139.312 45.7705 139.829 46.5322C140.356 47.2939 141.187 47.6748 142.319 47.6748C144.321 47.6748 145.322 46.0244 145.322 42.7236C145.322 41.1123 145.073 39.9062 144.575 39.1055C144.087 38.2949 143.315 37.8896 142.261 37.8896ZM160.352 37.4941C159.404 37.4941 158.662 37.7969 158.125 38.4023C157.588 38.998 157.28 39.8477 157.202 40.9512H163.472C163.452 39.8477 163.164 38.998 162.607 38.4023C162.051 37.7969 161.299 37.4941 160.352 37.4941ZM160.981 51.293C158.345 51.293 156.284 50.5654 154.8 49.1104C153.315 47.6553 152.573 45.5947 152.573 42.9287C152.573 40.1846 153.257 38.0654 154.624 36.5713C156.001 35.0674 157.9 34.3154 160.322 34.3154C162.637 34.3154 164.438 34.9746 165.728 36.293C167.017 37.6113 167.661 39.4326 167.661 41.7568V43.9248H157.1C157.148 45.1943 157.524 46.1855 158.228 46.8984C158.931 47.6113 159.917 47.9678 161.187 47.9678C162.173 47.9678 163.105 47.8652 163.984 47.6602C164.863 47.4551 165.781 47.1279 166.738 46.6787V50.1357C165.957 50.5264 165.122 50.8145 164.233 51C163.345 51.1953 162.261 51.293 160.981 51.293Z" fill="#F4AAE8"/>
</svg>
