<svg width="135" height="30" viewBox="0 0 135 30" fill="none" xmlns="http://www.w3.org/2000/svg">
<path d="M0.745117 22V0.583984H5.28613V18.25H13.9727V22H0.745117ZM32.2393 13.7822C32.2393 15.1494 32.0537 16.3604 31.6826 17.415C31.3213 18.4697 30.7891 19.3633 30.0859 20.0957C29.3926 20.8184 28.5527 21.3652 27.5664 21.7363C26.5898 22.1074 25.4863 22.293 24.2559 22.293C23.1035 22.293 22.0439 22.1074 21.0771 21.7363C20.1201 21.3652 19.2852 20.8184 18.5723 20.0957C17.8691 19.3633 17.3223 18.4697 16.9316 17.415C16.5508 16.3604 16.3604 15.1494 16.3604 13.7822C16.3604 11.9658 16.6826 10.4277 17.3271 9.16797C17.9717 7.9082 18.8896 6.95117 20.0811 6.29688C21.2725 5.64258 22.6934 5.31543 24.3438 5.31543C25.877 5.31543 27.2344 5.64258 28.416 6.29688C29.6074 6.95117 30.54 7.9082 31.2139 9.16797C31.8975 10.4277 32.2393 11.9658 32.2393 13.7822ZM20.916 13.7822C20.916 14.8564 21.0332 15.7598 21.2676 16.4922C21.502 17.2246 21.8682 17.7764 22.3662 18.1475C22.8643 18.5186 23.5137 18.7041 24.3145 18.7041C25.1055 18.7041 25.7451 18.5186 26.2334 18.1475C26.7314 17.7764 27.0928 17.2246 27.3174 16.4922C27.5518 15.7598 27.6689 14.8564 27.6689 13.7822C27.6689 12.6982 27.5518 11.7998 27.3174 11.0869C27.0928 10.3643 26.7314 9.82227 26.2334 9.46094C25.7354 9.09961 25.0859 8.91895 24.2852 8.91895C23.1035 8.91895 22.2441 9.32422 21.707 10.1348C21.1797 10.9453 20.916 12.1611 20.916 13.7822ZM40.7207 29.207C38.4355 29.207 36.6875 28.8066 35.4766 28.0059C34.2754 27.2148 33.6748 26.1016 33.6748 24.666C33.6748 23.6797 33.9824 22.8545 34.5977 22.1904C35.2129 21.5264 36.1162 21.0527 37.3076 20.7695C36.8486 20.5742 36.4482 20.2568 36.1064 19.8174C35.7646 19.3682 35.5938 18.8945 35.5938 18.3965C35.5938 17.7715 35.7744 17.2539 36.1357 16.8438C36.4971 16.4238 37.0195 16.0137 37.7031 15.6133C36.8438 15.2422 36.1602 14.6465 35.6523 13.8262C35.1543 13.0059 34.9053 12.0391 34.9053 10.9258C34.9053 9.73438 35.1641 8.72363 35.6816 7.89355C36.209 7.05371 36.9707 6.41406 37.9668 5.97461C38.9727 5.53516 40.1934 5.31543 41.6289 5.31543C41.9316 5.31543 42.2832 5.33496 42.6836 5.37402C43.084 5.41309 43.4502 5.45703 43.7822 5.50586C44.124 5.55469 44.3535 5.59375 44.4707 5.62305H50.1836V7.89355L47.6201 8.55273C47.8545 8.91406 48.0303 9.2998 48.1475 9.70996C48.2646 10.1201 48.3232 10.5547 48.3232 11.0137C48.3232 12.7715 47.708 14.1436 46.4775 15.1299C45.2568 16.1064 43.5576 16.5947 41.3799 16.5947C40.8623 16.5654 40.374 16.5264 39.915 16.4775C39.6904 16.6533 39.5195 16.8389 39.4023 17.0342C39.2852 17.2295 39.2266 17.4346 39.2266 17.6494C39.2266 17.8643 39.3145 18.0449 39.4902 18.1914C39.6758 18.3281 39.9492 18.4355 40.3105 18.5137C40.6816 18.582 41.1406 18.6162 41.6875 18.6162H44.4707C46.2676 18.6162 47.6348 19.002 48.5723 19.7734C49.5195 20.5449 49.9932 21.6777 49.9932 23.1719C49.9932 25.0859 49.1924 26.5703 47.5908 27.625C45.999 28.6797 43.709 29.207 40.7207 29.207ZM40.9111 26.292C41.9756 26.292 42.8887 26.1895 43.6504 25.9844C44.4219 25.7891 45.0127 25.5059 45.4229 25.1348C45.833 24.7734 46.0381 24.3389 46.0381 23.8311C46.0381 23.4209 45.916 23.0938 45.6719 22.8496C45.4375 22.6152 45.0762 22.4492 44.5879 22.3516C44.1094 22.2539 43.4941 22.2051 42.7422 22.2051H40.4277C39.8809 22.2051 39.3877 22.293 38.9482 22.4688C38.5186 22.6445 38.1768 22.8887 37.9229 23.2012C37.6689 23.5234 37.542 23.8945 37.542 24.3145C37.542 24.9297 37.835 25.4131 38.4209 25.7646C39.0166 26.1162 39.8467 26.292 40.9111 26.292ZM41.6289 13.8701C42.4688 13.8701 43.084 13.6113 43.4746 13.0938C43.8652 12.5762 44.0605 11.873 44.0605 10.9844C44.0605 9.99805 43.8555 9.26074 43.4453 8.77246C43.0449 8.27441 42.4395 8.02539 41.6289 8.02539C40.8086 8.02539 40.1934 8.27441 39.7832 8.77246C39.373 9.26074 39.168 9.99805 39.168 10.9844C39.168 11.873 39.3682 12.5762 39.7686 13.0938C40.1787 13.6113 40.7988 13.8701 41.6289 13.8701ZM67.7764 13.7822C67.7764 15.1494 67.5908 16.3604 67.2197 17.415C66.8584 18.4697 66.3262 19.3633 65.623 20.0957C64.9297 20.8184 64.0898 21.3652 63.1035 21.7363C62.127 22.1074 61.0234 22.293 59.793 22.293C58.6406 22.293 57.5811 22.1074 56.6143 21.7363C55.6572 21.3652 54.8223 20.8184 54.1094 20.0957C53.4062 19.3633 52.8594 18.4697 52.4688 17.415C52.0879 16.3604 51.8975 15.1494 51.8975 13.7822C51.8975 11.9658 52.2197 10.4277 52.8643 9.16797C53.5088 7.9082 54.4268 6.95117 55.6182 6.29688C56.8096 5.64258 58.2305 5.31543 59.8809 5.31543C61.4141 5.31543 62.7715 5.64258 63.9531 6.29688C65.1445 6.95117 66.0771 7.9082 66.751 9.16797C67.4346 10.4277 67.7764 11.9658 67.7764 13.7822ZM56.4531 13.7822C56.4531 14.8564 56.5703 15.7598 56.8047 16.4922C57.0391 17.2246 57.4053 17.7764 57.9033 18.1475C58.4014 18.5186 59.0508 18.7041 59.8516 18.7041C60.6426 18.7041 61.2822 18.5186 61.7705 18.1475C62.2686 17.7764 62.6299 17.2246 62.8545 16.4922C63.0889 15.7598 63.2061 14.8564 63.2061 13.7822C63.2061 12.6982 63.0889 11.7998 62.8545 11.0869C62.6299 10.3643 62.2686 9.82227 61.7705 9.46094C61.2725 9.09961 60.623 8.91895 59.8223 8.91895C58.6406 8.91895 57.7812 9.32422 57.2441 10.1348C56.7168 10.9453 56.4531 12.1611 56.4531 13.7822ZM78.3672 18.7334C78.8555 18.7334 79.3291 18.6846 79.7881 18.5869C80.2568 18.4893 80.7207 18.3672 81.1797 18.2207V21.5459C80.7012 21.7607 80.1055 21.9365 79.3926 22.0732C78.6895 22.2197 77.918 22.293 77.0781 22.293C76.1016 22.293 75.2227 22.1367 74.4414 21.8242C73.6699 21.502 73.0596 20.9502 72.6104 20.1689C72.1709 19.3779 71.9512 18.2793 71.9512 16.873V8.97754H69.8125V7.08789L72.2734 5.59375L73.5625 2.13672H76.4189V5.62305H81.0039V8.97754H76.4189V16.873C76.4189 17.498 76.5947 17.9668 76.9463 18.2793C77.3076 18.582 77.7812 18.7334 78.3672 18.7334ZM82.1611 5.62305H87.0537L90.1445 14.8369C90.2422 15.1299 90.3252 15.4277 90.3936 15.7305C90.4619 16.0332 90.5205 16.3457 90.5693 16.668C90.6182 16.9902 90.6572 17.3271 90.6865 17.6787H90.7744C90.833 17.1514 90.9111 16.6582 91.0088 16.1992C91.1162 15.7402 91.248 15.2861 91.4043 14.8369L94.4365 5.62305H99.2266L92.2979 24.0947C91.8779 25.2275 91.3311 26.1699 90.6572 26.9219C89.9834 27.6836 89.207 28.2549 88.3281 28.6357C87.459 29.0166 86.502 29.207 85.457 29.207C84.9492 29.207 84.5098 29.1777 84.1387 29.1191C83.7676 29.0703 83.4502 29.0166 83.1865 28.958V25.4131C83.3916 25.4619 83.6504 25.5059 83.9629 25.5449C84.2754 25.584 84.6025 25.6035 84.9443 25.6035C85.5693 25.6035 86.1064 25.4717 86.5557 25.208C87.0049 24.9443 87.3809 24.5879 87.6836 24.1387C87.9863 23.6992 88.2256 23.2158 88.4014 22.6885L88.665 21.8828L82.1611 5.62305ZM110.696 5.31543C112.542 5.31543 114.031 6.0332 115.164 7.46875C116.307 8.9043 116.878 11.0088 116.878 13.7822C116.878 15.6377 116.609 17.2002 116.072 18.4697C115.535 19.7295 114.793 20.6816 113.846 21.3262C112.898 21.9707 111.81 22.293 110.579 22.293C109.788 22.293 109.109 22.1953 108.543 22C107.977 21.7949 107.493 21.5361 107.093 21.2236C106.692 20.9014 106.346 20.5596 106.053 20.1982H105.818C105.896 20.5889 105.955 20.9893 105.994 21.3994C106.033 21.8096 106.053 22.21 106.053 22.6006V29.207H101.585V5.62305H105.218L105.848 7.74707H106.053C106.346 7.30762 106.702 6.90234 107.122 6.53125C107.542 6.16016 108.045 5.86719 108.631 5.65234C109.227 5.42773 109.915 5.31543 110.696 5.31543ZM109.261 8.88965C108.479 8.88965 107.859 9.05078 107.4 9.37305C106.941 9.69531 106.604 10.1787 106.39 10.8232C106.185 11.4678 106.072 12.2832 106.053 13.2695V13.7529C106.053 14.8076 106.15 15.7012 106.346 16.4336C106.551 17.166 106.888 17.7227 107.356 18.1035C107.835 18.4844 108.489 18.6748 109.319 18.6748C110.003 18.6748 110.564 18.4844 111.004 18.1035C111.443 17.7227 111.771 17.166 111.985 16.4336C112.21 15.6914 112.322 14.7881 112.322 13.7236C112.322 12.1221 112.073 10.916 111.575 10.1055C111.077 9.29492 110.306 8.88965 109.261 8.88965ZM127.322 5.31543C128.836 5.31543 130.14 5.6084 131.233 6.19434C132.327 6.77051 133.172 7.61035 133.768 8.71387C134.363 9.81738 134.661 11.165 134.661 12.7568V14.9248H124.1C124.148 16.1846 124.524 17.1758 125.228 17.8984C125.94 18.6113 126.927 18.9678 128.187 18.9678C129.231 18.9678 130.188 18.8604 131.058 18.6455C131.927 18.4307 132.82 18.1084 133.738 17.6787V21.1357C132.928 21.5361 132.078 21.8291 131.189 22.0146C130.311 22.2002 129.241 22.293 127.981 22.293C126.341 22.293 124.886 21.9902 123.616 21.3848C122.356 20.7793 121.365 19.8564 120.643 18.6162C119.93 17.376 119.573 15.8135 119.573 13.9287C119.573 12.0146 119.896 10.4229 120.54 9.15332C121.194 7.87402 122.103 6.91699 123.265 6.28223C124.427 5.6377 125.779 5.31543 127.322 5.31543ZM127.352 8.49414C126.482 8.49414 125.76 8.77246 125.184 9.3291C124.617 9.88574 124.29 10.7598 124.202 11.9512H130.472C130.462 11.2871 130.34 10.6963 130.105 10.1787C129.881 9.66113 129.539 9.25098 129.08 8.94824C128.631 8.64551 128.055 8.49414 127.352 8.49414Z" fill="white"/>
</svg>
